<svg width="34" height="36" viewBox="0 0 34 36" fill="none" xmlns="http://www.w3.org/2000/svg">
<rect width="34" height="36" fill="#C998FB"/>
<path d="M28.98 26.8503C28.3278 25.2785 27.3813 23.8508 26.1933 22.6467C25.0089 21.4392 23.6059 20.4764 22.0617 19.8116C22.0478 19.8045 22.034 19.801 22.0202 19.794C24.1742 18.2111 25.5744 15.6327 25.5744 12.7236C25.5744 7.90452 21.7367 4 17 4C12.2633 4 8.42559 7.90452 8.42559 12.7236C8.42559 15.6327 9.82585 18.2111 11.9798 19.7975C11.966 19.8045 11.9522 19.808 11.9383 19.8151C10.3894 20.4799 8.99952 21.4332 7.80671 22.6503C6.61981 23.8553 5.67349 25.2827 5.02003 26.8538C4.37806 28.3918 4.03183 30.0409 4.00009 31.7116C3.99916 31.7491 4.00564 31.7864 4.01912 31.8214C4.03261 31.8564 4.05284 31.8882 4.07861 31.9151C4.10439 31.942 4.13519 31.9633 4.16921 31.9779C4.20323 31.9925 4.23977 32 4.27668 32H6.35113C6.50326 32 6.62427 31.8769 6.62773 31.7256C6.69688 29.01 7.76868 26.4668 9.66335 24.5392C11.6237 22.5447 14.2271 21.4472 17 21.4472C19.7729 21.4472 22.3763 22.5447 24.3367 24.5392C26.2313 26.4668 27.3031 29.01 27.3723 31.7256C27.3757 31.8804 27.4967 32 27.6489 32H29.7233C29.7602 32 29.7968 31.9925 29.8308 31.9779C29.8648 31.9633 29.8956 31.942 29.9214 31.9151C29.9472 31.8882 29.9674 31.8564 29.9809 31.8214C29.9944 31.7864 30.0008 31.7491 29.9999 31.7116C29.9653 30.0301 29.6231 28.3945 28.98 26.8503ZM17 18.7739C15.413 18.7739 13.9194 18.1442 12.7958 17.001C11.6721 15.8578 11.0532 14.3382 11.0532 12.7236C11.0532 11.109 11.6721 9.58945 12.7958 8.44623C13.9194 7.30301 15.413 6.67337 17 6.67337C18.587 6.67337 20.0806 7.30301 21.2042 8.44623C22.3279 9.58945 22.9468 11.109 22.9468 12.7236C22.9468 14.3382 22.3279 15.8578 21.2042 17.001C20.0806 18.1442 18.587 18.7739 17 18.7739Z" fill="white"/>
</svg>
